<?xml version="1.0" encoding="UTF-8"?>
<svg version="1.1" xmlns="http://www.w3.org/2000/svg" width="375" height="434">
<path d="M0 0 C0.67393799 0.07742432 1.34787598 0.15484863 2.04223633 0.23461914 C6.16715275 0.81962228 9.20492085 1.83353969 12.5625 4.3125 C12.8925 4.9725 13.2225 5.6325 13.5625 6.3125 C15.54138961 7.03943904 17.54204558 7.71066251 19.5625 8.3125 C19.8925 9.9625 20.2225 11.6125 20.5625 13.3125 C21.23796875 13.42207031 21.9134375 13.53164063 22.609375 13.64453125 C23.50140625 13.80308594 24.3934375 13.96164063 25.3125 14.125 C26.63507813 14.35123047 26.63507813 14.35123047 27.984375 14.58203125 C30.80881156 15.38228827 32.42019972 16.31977474 34.5625 18.3125 C34.8925 19.3025 35.2225 20.2925 35.5625 21.3125 C37.21479533 21.75086407 38.8689031 22.18347677 40.53125 22.58203125 C43.70905112 23.72481742 46.02732542 25.83203927 48.63671875 27.9296875 C50.66926489 29.53337877 50.66926489 29.53337877 53.9375 30.4375 C54.80375 30.72625 55.67 31.015 56.5625 31.3125 C56.83320313 31.95058594 57.10390625 32.58867188 57.3828125 33.24609375 C59.4195831 36.81381444 63.26307335 37.02384641 67.03125 38.08984375 C69.5625 39.3125 69.5625 39.3125 70.90625 41.94140625 C71.1228125 42.72386719 71.339375 43.50632813 71.5625 44.3125 C72.820625 44.395 74.07875 44.4775 75.375 44.5625 C77.51953125 44.703125 77.51953125 44.703125 79.5625 45.3125 C80.56465968 46.64421084 81.5645122 47.97765989 82.5625 49.3125 C84.94090383 50.46025596 84.94090383 50.46025596 87.5625 51.25 C92.0926572 52.9056258 93.12526665 54.17979997 95.5625 58.3125 C97.80291389 59.28565275 100.05257386 59.95265566 102.3984375 60.62890625 C104.92014547 61.42547465 106.6888624 62.4388624 108.5625 64.3125 C108.5625 64.9725 108.5625 65.6325 108.5625 66.3125 C109.655625 66.35375 110.74875 66.395 111.875 66.4375 C113.091875 66.72625 114.30875 67.015 115.5625 67.3125 C115.995625 68.281875 116.42875 69.25125 116.875 70.25 C118.19788387 73.49244394 118.19788387 73.49244394 120.85546875 74.01171875 C122.62559761 74.29013729 124.40418938 74.52016592 126.1875 74.6953125 C128.5625 75.3125 128.5625 75.3125 130.375 77.2421875 C131.5625 79.3125 131.5625 79.3125 131.5625 81.3125 C133.8725 81.6425 136.1825 81.9725 138.5625 82.3125 C138.76875 83.116875 138.975 83.92125 139.1875 84.75 C139.64125 85.595625 140.095 86.44125 140.5625 87.3125 C143.32693801 88.09400791 143.32693801 88.09400791 146.5625 88.3125 C150.3125 89 150.3125 89 153.5625 90.3125 C154.75 93.375 154.75 93.375 155.5625 96.3125 C157.57758358 97.04573796 157.57758358 97.04573796 159.5625 97.3125 C160.7712195 100.93865849 160.70078865 104.25054402 160.68948364 108.02479553 C160.69104363 108.81815683 160.69260362 109.61151813 160.69421089 110.42892069 C160.69820985 113.09594305 160.6950355 115.76290882 160.69189453 118.42993164 C160.69324905 120.3384352 160.69502927 122.24693849 160.69720459 124.15544128 C160.70177259 129.34532155 160.69999203 134.53518199 160.6968255 139.72506261 C160.69429902 145.14804339 160.69664022 150.57102245 160.69821167 155.9940033 C160.70003236 165.1009044 160.69762951 174.20779739 160.69287109 183.31469727 C160.68742704 193.85579358 160.68919258 204.39687056 160.6946975 214.93796641 C160.69922953 223.9766262 160.69987878 233.01528015 160.69725883 242.05394071 C160.69569676 247.45753925 160.69550041 252.86112868 160.69879532 258.26472664 C160.70167539 263.34292192 160.69969582 268.42109218 160.69390106 273.49928474 C160.69257427 275.3674007 160.69296622 277.23551875 160.69516373 279.10363388 C160.69787832 281.64484746 160.69449028 284.18597977 160.68948364 286.72718811 C160.69171436 287.47416004 160.69394509 288.22113196 160.69624341 288.99073941 C160.67665018 294.08419964 160.67665018 294.08419964 159.5625 296.3125 C156.52285914 297.37794112 153.44598062 298.23828261 150.34765625 299.1171875 C147.13188777 300.49730693 146.91648499 301.25511454 145.5625 304.3125 C141.9375 305.0625 141.9375 305.0625 138.5625 305.3125 C138.5625 305.9725 138.5625 306.6325 138.5625 307.3125 C137.60988281 307.75980469 136.65726562 308.20710938 135.67578125 308.66796875 C134.40859015 309.2780978 133.14167772 309.88880585 131.875 310.5 C131.24916016 310.79197266 130.62332031 311.08394531 129.97851562 311.38476562 C125.7109207 313.46270451 122.87764935 315.85248699 119.5625 319.3125 C117.28125 320.7890625 117.28125 320.7890625 115.0625 321.9375 C110.00030067 324.59337219 105.33106034 327.44845567 100.75 330.875 C97.52617985 333.17841709 94.95398209 334.72028592 91.0625 335.5 C89.9075 335.768125 88.7525 336.03625 87.5625 336.3125 C87.2840625 336.92480469 87.005625 337.53710938 86.71875 338.16796875 C85.02979307 341.30052737 82.75150455 341.97331762 79.5625 343.4375 C75.21809984 345.3803902 75.21809984 345.3803902 71.5625 348.3125 C69.23974823 348.71297444 66.90510643 349.0522104 64.5625 349.3125 C64.459375 349.910625 64.35625 350.50875 64.25 351.125 C63.4397561 353.70304879 62.62382809 354.58932236 60.5625 356.3125 C58.40625 357.12109375 58.40625 357.12109375 56.0625 357.75 C52.19242455 358.93408106 50.84709314 359.94000536 48.5625 363.3125 C46.56678677 363.99189174 44.56655227 364.65811559 42.5625 365.3125 C41.985 365.93125 41.4075 366.55 40.8125 367.1875 C38.36952559 369.49475361 36.63168253 370.13057079 33.5 371.25 C29.03210854 372.8953807 27.94140569 374.20348108 25.5625 378.3125 C22.95552364 379.34419703 20.30997131 379.80288839 17.5625 380.3125 C16.5725 380.6425 15.5825 380.9725 14.5625 381.3125 C14.294375 381.951875 14.02625 382.59125 13.75 383.25 C12.5625 385.3125 12.5625 385.3125 9.5625 386.25 C6.34712962 386.99440403 6.34712962 386.99440403 5.3125 389.875 C4.94125 391.0815625 4.94125 391.0815625 4.5625 392.3125 C2.23086164 393.47831918 0.84096518 393.44155609 -1.75390625 393.4453125 C-3.02331055 393.44724609 -3.02331055 393.44724609 -4.31835938 393.44921875 C-5.20330078 393.44535156 -6.08824219 393.44148438 -7 393.4375 C-7.88880859 393.44136719 -8.77761719 393.44523437 -9.69335938 393.44921875 C-10.53833984 393.44792969 -11.38332031 393.44664062 -12.25390625 393.4453125 C-13.03193604 393.44418457 -13.80996582 393.44305664 -14.61157227 393.44189453 C-16.4375 393.3125 -16.4375 393.3125 -17.4375 392.3125 C-17.47830783 390.31291636 -17.48004356 388.31204746 -17.4375 386.3125 C-18.489375 386.250625 -19.54125 386.18875 -20.625 386.125 C-24.4375 385.3125 -24.4375 385.3125 -26.8125 382.875 C-29.62879371 380.12576091 -30.42784812 379.91984712 -34.125 379.3125 C-36.5078125 378.90234375 -36.5078125 378.90234375 -38.4375 378.3125 C-39.15477778 376.66698038 -39.82075228 374.99827711 -40.4375 373.3125 C-42.36897078 372.55955377 -44.3076909 371.81751679 -46.28515625 371.1953125 C-49.35298939 369.93699982 -51.36782208 367.89698836 -53.76953125 365.66015625 C-56.07689872 363.79588979 -58.64393227 363.22203368 -61.4375 362.3125 C-61.69660156 361.67054688 -61.95570312 361.02859375 -62.22265625 360.3671875 C-63.31972043 358.01934556 -63.31972043 358.01934556 -66.2578125 357.265625 C-67.34835938 357.03359375 -68.43890625 356.8015625 -69.5625 356.5625 C-70.65820312 356.32015625 -71.75390625 356.0778125 -72.8828125 355.828125 C-73.72585937 355.65796875 -74.56890625 355.4878125 -75.4375 355.3125 C-75.7675 353.3325 -76.0975 351.3525 -76.4375 349.3125 C-77.46875 349.250625 -78.5 349.18875 -79.5625 349.125 C-83.46442849 348.3068537 -84.91771449 347.31540748 -87.75390625 344.640625 C-90.39934098 342.55373913 -93.43654027 341.54567967 -96.58203125 340.40234375 C-98.4375 339.3125 -98.4375 339.3125 -99.19921875 337.19140625 C-99.27785156 336.57136719 -99.35648437 335.95132812 -99.4375 335.3125 C-100.4275 335.291875 -101.4175 335.27125 -102.4375 335.25 C-106.97252331 334.64533023 -109.30644519 332.01083939 -112.51953125 328.953125 C-114.95489571 326.86992119 -117.39254597 326.21214551 -120.4375 325.3125 C-121.015 324.69375 -121.5925 324.075 -122.1875 323.4375 C-125.1682969 320.62230293 -128.34202173 319.71811889 -132.1953125 318.4375 C-134.91586665 317.07248328 -135.15559209 315.98053597 -136.4375 313.3125 C-138.3945501 312.11676783 -138.3945501 312.11676783 -140.6875 311.3125 C-144.63649543 309.70762826 -147.88622458 307.68001695 -151.4375 305.3125 C-152.38625 305.003125 -153.335 304.69375 -154.3125 304.375 C-158.46019071 302.96478516 -161.80478432 300.72468099 -165.4375 298.3125 C-166.33275391 297.72855469 -166.33275391 297.72855469 -167.24609375 297.1328125 C-171.24431818 294.50568182 -171.24431818 294.50568182 -172.4375 293.3125 C-172.54631747 290.8027694 -172.58974223 288.32013842 -172.59140015 285.80947876 C-172.5957824 285.01444832 -172.60016465 284.21941788 -172.6046797 283.40029562 C-172.61811713 280.71559192 -172.62425757 278.03092108 -172.63037109 275.34619141 C-172.63826808 273.42975209 -172.64653678 271.51331428 -172.65515137 269.59687805 C-172.68141504 263.28595407 -172.69668189 256.9750233 -172.7109375 250.6640625 C-172.71629512 248.49569061 -172.72167262 246.32731878 -172.72706985 244.15894699 C-172.74870367 235.14306273 -172.76744265 226.12718029 -172.77869225 217.11127663 C-172.79494576 204.16795987 -172.82815188 191.22494267 -172.88509309 178.28173888 C-172.92372144 169.19299959 -172.94331641 160.10434066 -172.94861281 151.01552141 C-172.95227564 145.58098835 -172.96439548 140.14677445 -172.99671555 134.71232986 C-173.02667181 129.60200849 -173.03315269 124.49220145 -173.02133179 119.38181114 C-173.02111001 117.50280915 -173.02950016 115.62378415 -173.04698563 113.74486351 C-173.06951066 111.18577676 -173.06146157 108.6285816 -173.04550171 106.06948853 C-173.06632484 104.94551711 -173.06632484 104.94551711 -173.08756864 103.79883921 C-173.05553246 101.72423744 -173.05553246 101.72423744 -172.4375 98.3125 C-169.95028114 96.51909447 -169.95028114 96.51909447 -167.4375 95.3125 C-167.169375 94.301875 -166.90125 93.29125 -166.625 92.25 C-166.233125 91.280625 -165.84125 90.31125 -165.4375 89.3125 C-161.75 88.25 -161.75 88.25 -159.5859375 87.8671875 C-156.55914105 87.08572369 -154.6052348 85.44743693 -152.17578125 83.54296875 C-150.35690106 82.25544682 -148.63714785 81.48609153 -146.5625 80.6875 C-145.015625 80.006875 -145.015625 80.006875 -143.4375 79.3125 C-142.9425 77.8275 -142.9425 77.8275 -142.4375 76.3125 C-139.44346842 75.17744922 -136.41242895 74.39736051 -133.3203125 73.5703125 C-129.83931893 72.05150501 -129.20679077 70.57282513 -127.4375 67.3125 C-125.10940457 66.62776605 -122.77512223 65.96396849 -120.4375 65.3125 C-118.30063245 63.84467068 -116.31215609 62.24972328 -114.29296875 60.625 C-112.4375 59.3125 -112.4375 59.3125 -109.625 58.75 C-108.903125 58.605625 -108.18125 58.46125 -107.4375 58.3125 C-107.01082031 57.53261719 -106.58414063 56.75273438 -106.14453125 55.94921875 C-104.06523329 52.73748849 -102.45547781 52.07766865 -98.9375 50.6875 C-95.38173447 49.26328209 -93.03439544 48.1144135 -90.4375 45.3125 C-88.4375 44.3125 -86.4375 43.3125 -84.4375 42.3125 C-83.674375 41.6525 -82.91125 40.9925 -82.125 40.3125 C-79.5319945 38.38282149 -77.91348577 37.75377775 -74.875 36.875 C-70.6070206 35.58615473 -69.07439889 33.94960192 -66.4375 30.3125 C-64.46449884 29.26023272 -62.46073613 28.26461112 -60.4375 27.3125 C-59.25659165 26.47813361 -58.09026163 25.62284159 -56.9375 24.75 C-54.607913 23.02076912 -53.1482929 22.21995373 -50.3125 21.3125 C-47.25776598 20.49657857 -47.25776598 20.49657857 -45.125 17.875 C-41.99119899 14.88695717 -39.55239492 14.1892391 -35.42578125 13.18359375 C-32.850155 12.05517596 -32.58318208 10.80139555 -31.4375 8.3125 C-29.4375 7.64583333 -27.4375 6.97916667 -25.4375 6.3125 C-24.73625 5.4875 -24.035 4.6625 -23.3125 3.8125 C-16.86322383 -1.79556623 -8.04451074 -0.93940377 0 0 Z M-15.51171875 79.86328125 C-17.4375 81.3125 -17.4375 81.3125 -20.8125 82.375 C-21.67875 82.684375 -22.545 82.99375 -23.4375 83.3125 C-23.70820313 84.13105469 -23.97890625 84.94960937 -24.2578125 85.79296875 C-24.64710938 86.62441406 -25.03640625 87.45585938 -25.4375 88.3125 C-27.96875 89.203125 -27.96875 89.203125 -30.9375 89.5625 C-34.82263153 89.99489972 -34.82263153 89.99489972 -38.4375 91.3125 C-38.664375 92.116875 -38.89125 92.92125 -39.125 93.75 C-39.558125 94.595625 -39.99125 95.44125 -40.4375 96.3125 C-42.75293043 97.03890955 -45.09019935 97.69681458 -47.4375 98.3125 C-49.27109088 99.47417899 -50.95045808 100.76000375 -52.66796875 102.0859375 C-54.48543523 103.34572663 -56.18633274 104.09738625 -58.25 104.875 C-61.51890965 105.91966894 -61.51890965 105.91966894 -62.26171875 108.20703125 C-63.98216781 111.28783538 -66.27362798 111.98485684 -69.4375 113.4375 C-73.78190016 115.3803902 -73.78190016 115.3803902 -77.4375 118.3125 C-78.38625 118.60125 -79.335 118.89 -80.3125 119.1875 C-83.46199477 120.05261086 -83.46199477 120.05261086 -85.1875 122.1875 C-87.63047441 124.49475361 -89.36831747 125.13057079 -92.5 126.25 C-96.84632638 127.8639867 -98.37105546 129.07085069 -100.4375 133.3125 C-101.27430298 133.63530945 -102.11110596 133.9581189 -102.9732666 134.29071045 C-105.59698586 136.01978097 -105.59698586 136.01978097 -105.90263367 138.39694977 C-106.07797651 141.30768376 -106.08944348 144.18268416 -106.05273438 147.09863281 C-106.05828339 148.20948746 -106.0638324 149.3203421 -106.06954956 150.46485901 C-106.08139055 154.14888217 -106.05701775 157.83168721 -106.03125 161.515625 C-106.02953958 164.07289575 -106.02960388 166.63016825 -106.03137207 169.18743896 C-106.02971611 174.55434209 -106.01155208 179.92081845 -105.97949219 185.28759766 C-105.94267286 191.48095318 -105.93380596 197.67384673 -105.9407897 203.86729741 C-105.94711163 209.83299938 -105.93609097 215.79856479 -105.91682434 221.76424408 C-105.90979832 224.29833963 -105.90666932 226.83244911 -105.90751648 229.36655426 C-105.90571509 232.9142203 -105.88430006 236.46123576 -105.85742188 240.00878906 C-105.86035248 241.05424393 -105.86328308 242.09969879 -105.86630249 243.17683411 C-105.79864094 248.9768456 -105.29453151 253.21538144 -102.4375 258.3125 C-100.08815228 260.07226342 -100.08815228 260.07226342 -97.375 261.0625 C-92.61377119 263.04809322 -92.61377119 263.04809322 -90.4375 266.3125 C-87.42770152 267.45145971 -84.38260361 268.28295087 -81.28515625 269.15234375 C-78.12933228 270.43804981 -77.31721295 271.57477994 -75.4375 274.3125 C-74.014375 274.498125 -74.014375 274.498125 -72.5625 274.6875 C-68.75184982 275.44963004 -68.12936684 276.86489279 -65.9296875 279.8984375 C-63.48609661 282.21409169 -60.59579928 282.23911749 -57.3671875 282.7578125 C-56.41199219 283.03238281 -56.41199219 283.03238281 -55.4375 283.3125 C-54.72022222 284.95801962 -54.05424772 286.62672289 -53.4375 288.3125 C-51.5053009 289.06573016 -49.56548881 289.80761812 -47.5859375 290.42578125 C-45.17021282 291.42281671 -43.75966578 292.64237716 -41.875 294.4375 C-38.4600366 297.61640602 -36.0518646 298.12415859 -31.4375 298.3125 C-31.38335937 299.09496094 -31.32921875 299.87742187 -31.2734375 300.68359375 C-30.85964844 301.98490234 -30.85964844 301.98490234 -30.4375 303.3125 C-28.01165114 304.64742133 -28.01165114 304.64742133 -25.0625 305.375 C-20.66859784 306.63288492 -19.05360467 307.61649166 -16.4375 311.3125 C-13.3532691 311.72952122 -13.3532691 311.72952122 -10.4375 311.3125 C-8.28352501 309.15852501 -9.28317685 304.1331654 -9.27978516 301.14282227 C-9.27470444 300.18028534 -9.26962372 299.21774841 -9.26438904 298.2260437 C-9.2536603 296.12853987 -9.24505002 294.03102441 -9.23826981 291.9335041 C-9.22652572 288.61852561 -9.20708559 285.30368006 -9.18515015 281.98875427 C-9.12337618 272.56115102 -9.06941971 263.13356073 -9.03613281 253.70581055 C-9.0152473 247.94685928 -8.97999337 242.1881488 -8.93537521 236.42933464 C-8.92116545 234.22884891 -8.91248164 232.02832056 -8.90932083 229.82779121 C-8.90444027 226.75545998 -8.88135664 223.6837736 -8.85400391 220.61157227 C-8.85851311 219.23612999 -8.85851311 219.23612999 -8.8631134 217.832901 C-8.85202042 216.99859558 -8.84092743 216.16429016 -8.82949829 215.30470276 C-8.82618814 214.57778512 -8.822878 213.85086748 -8.81946754 213.10192204 C-8.4375 211.3125 -8.4375 211.3125 -5.4375 209.3125 C0.89583333 208.97916667 0.89583333 208.97916667 3.5625 210.3125 C4.64171632 215.56942228 4.69528479 220.72792951 4.66015625 226.07763672 C4.65796585 227.34960152 4.65796585 227.34960152 4.6557312 228.64726257 C4.65194424 230.47621118 4.645848 232.3051562 4.63766479 234.13409042 C4.62485479 237.02495814 4.61837457 239.91577979 4.61352539 242.80667114 C4.60212935 248.93363492 4.58285807 255.06056032 4.5625 261.1875 C4.53892758 268.30844973 4.51855258 275.42937838 4.50656128 282.55035782 C4.50005623 285.40501001 4.48755358 288.2595969 4.47485352 291.11422729 C4.47122372 292.85072776 4.46787165 294.58722885 4.46484375 296.32373047 C4.45709427 297.52211296 4.45709427 297.52211296 4.44918823 298.7447052 C4.44900731 300.60102109 4.50011271 302.45723276 4.5625 304.3125 C4.8925 304.6425 5.2225 304.9725 5.5625 305.3125 C7.56962393 305.24732868 7.56962393 305.24732868 9.875 304.9375 C10.65488281 304.84726562 11.43476563 304.75703125 12.23828125 304.6640625 C14.39642672 304.33762033 16.45673359 303.88110512 18.5625 303.3125 C19.7350023 297.71356004 19.7352845 292.22668945 19.76782227 286.53369141 C19.77772186 285.45992249 19.78762146 284.38615356 19.79782104 283.27984619 C19.8293328 279.74127383 19.85415265 276.20268805 19.87890625 272.6640625 C19.89948469 270.20640724 19.92048139 267.74875544 19.94187927 265.29110718 C19.99700799 258.83033054 20.04645782 252.36952245 20.09472656 245.90869141 C20.1450088 239.31279713 20.20065976 232.71694839 20.25585938 226.12109375 C20.36332841 213.18493502 20.46498069 200.24873737 20.5625 187.3125 C22.2125 187.6425 23.8625 187.9725 25.5625 188.3125 C26.8739605 192.24688151 26.72348575 196.00854948 26.73608398 200.11083984 C26.742771 201.01032852 26.74945801 201.9098172 26.75634766 202.83656311 C26.77040158 204.79105651 26.78229454 206.74556635 26.79229546 208.70008469 C26.80869968 211.79341349 26.83193739 214.88662049 26.85719299 217.97988892 C26.927985 226.7752679 26.98809409 235.57069657 27.03930664 244.36621094 C27.07110386 249.74489273 27.11238121 255.1234344 27.15950203 260.50200272 C27.17551728 262.55208439 27.18784105 264.60219835 27.19640923 266.65232468 C27.20856762 269.52015149 27.2327199 272.38764907 27.25952148 275.25537109 C27.26011063 276.10230026 27.26069977 276.94922943 27.26130676 277.82182312 C27.31425498 282.09902404 27.58376808 285.4119099 29.5625 289.3125 C31.35408489 289.33946365 33.14578473 289.35887917 34.9375 289.375 C36.43410156 289.39240234 36.43410156 289.39240234 37.9609375 289.41015625 C40.54682453 289.49256602 40.54682453 289.49256602 42.5625 288.3125 C42.7171875 287.3534375 42.7171875 287.3534375 42.875 286.375 C43.101875 285.694375 43.32875 285.01375 43.5625 284.3125 C46.0625 283.1875 46.0625 283.1875 48.5625 282.3125 C49.70188395 280.0337321 49.68365363 278.80121007 49.67602539 276.27128601 C49.6759549 275.42593292 49.6758844 274.58057983 49.67581177 273.70960999 C49.67064545 272.78023117 49.66547913 271.85085236 49.66015625 270.89331055 C49.65869598 269.91593933 49.65723572 268.93856812 49.6557312 267.93157959 C49.65191871 265.80407395 49.64579537 263.67657151 49.63766479 261.54907799 C49.62493809 258.18284344 49.61839474 254.81664815 49.61352539 251.45039368 C49.60012886 243.0865782 49.57595888 234.72279984 49.55212402 226.35900879 C49.53240438 219.29913863 49.51675646 212.2392824 49.50656128 205.17939186 C49.50007352 201.86181275 49.48756308 198.54429062 49.47485352 195.22673035 C49.47122052 193.19111175 49.46786885 191.15549263 49.46484375 189.11987305 C49.45967743 188.19656693 49.45451111 187.2732608 49.44918823 186.32197571 C49.44884678 182.18644502 49.507187 178.34455336 50.5625 174.3125 C51.5525 174.6425 52.5425 174.9725 53.5625 175.3125 C54.75288596 178.88365789 54.73048221 182.14826599 54.75195312 185.86645508 C54.76439308 187.01843887 54.76439308 187.01843887 54.77708435 188.19369507 C54.79448597 189.86332451 54.80965249 191.53297838 54.82286072 193.20264626 C54.84395142 195.85738443 54.87097862 198.51200407 54.89953613 201.16667175 C54.95923602 206.81940124 55.01123958 212.47218862 55.0625 218.125 C55.12203736 224.64148203 55.18481916 231.15790836 55.25437927 237.67429161 C55.2805962 240.26736519 55.30163789 242.8604453 55.3223877 245.4535675 C54.25074054 260.88635465 54.25074054 260.88635465 57.5625 274.3125 C59.56208364 274.35330783 61.56295254 274.35504356 63.5625 274.3125 C63.93375 273.3534375 63.93375 273.3534375 64.3125 272.375 C65.5625 270.3125 65.5625 270.3125 67.6875 269.5625 C68.30625 269.48 68.925 269.3975 69.5625 269.3125 C69.5625 268.6525 69.5625 267.9925 69.5625 267.3125 C70.2225 267.3125 70.8825 267.3125 71.5625 267.3125 C72.65535814 258.3123276 72.80051855 249.35270271 72.9140625 240.30078125 C72.93726178 238.64381145 72.96065229 236.98684432 72.98422241 235.32987976 C73.03247573 231.86114663 73.07739499 228.39238947 73.12011719 224.92358398 C73.1636591 221.41438033 73.21214115 217.90530636 73.265625 214.39624023 C73.55590597 195.33466682 73.77258684 176.35162417 72.5625 157.3125 C74.5425 157.3125 76.5225 157.3125 78.5625 157.3125 C79.78452271 159.75654543 79.63280786 161.20168312 79.5546875 163.9296875 C79.29463672 177.5393835 79.82050453 190.88692891 81 204.4375 C81.10136261 205.6089859 81.10136261 205.6089859 81.20477295 206.80413818 C81.8625812 214.32530997 82.6124264 221.82251229 83.5625 229.3125 C83.94776349 233.99493314 83.92415445 237.8856497 82.0625 242.25 C80.12573815 246.82112512 79.89182905 251.40876306 80.5625 256.3125 C82.16617827 259.41509065 82.16617827 259.41509065 84.4375 259.859375 C85.13875 259.92640625 85.84 259.9934375 86.5625 260.0625 C87.26375 260.13984375 87.965 260.2171875 88.6875 260.296875 C90.65564685 260.45536464 90.65564685 260.45536464 92.5625 259.3125 C93.74092108 252.89414118 93.71062052 246.49591328 93.70776367 239.98706055 C93.71112228 238.87880417 93.7144809 237.77054779 93.71794128 236.62870789 C93.72739883 232.98553329 93.72939123 229.34240484 93.73046875 225.69921875 C93.73368298 223.16193116 93.73704717 220.62464376 93.74055481 218.08735657 C93.74653163 212.78080744 93.74843894 207.47427544 93.74780273 202.16772461 C93.74720009 196.03391482 93.75779585 189.90019245 93.7735464 183.76640481 C93.78818247 177.8557248 93.79179137 171.94507164 93.79119301 166.03437233 C93.79237551 163.52207899 93.79681235 161.00978505 93.80452538 158.49750328 C93.81427812 154.99524932 93.81146679 151.49322412 93.80541992 147.9909668 C93.81103943 146.94833679 93.81665894 145.90570679 93.82244873 144.83148193 C93.81825424 143.87970566 93.81405975 142.92792938 93.80973816 141.9473114 C93.81028293 141.11979213 93.81082769 140.29227285 93.81138897 139.43967724 C93.69066469 137.0126451 93.69066469 137.0126451 91.5625 134.3125 C90.5725 133.879375 90.5725 133.879375 89.5625 133.4375 C87.5625 132.3125 87.5625 132.3125 86.76953125 129.8359375 C85.8076079 127.09267678 85.8076079 127.09267678 83.13671875 126.34375 C82.18410156 126.1684375 81.23148438 125.993125 80.25 125.8125 C75.23711471 124.66875173 72.9893833 123.24333672 69.5625 119.3125 C67.90433216 118.62496699 66.23790664 117.95688717 64.5625 117.3125 C63.985 116.69375 63.4075 116.075 62.8125 115.4375 C60.50857358 113.2615695 58.9017512 112.5328878 56 111.375 C51.87732907 109.67900692 50.79474305 108.16819254 48.5625 104.3125 C46.24310793 103.5988409 43.90726551 102.9377708 41.5625 102.3125 C39.71007384 101.12308971 38.00274319 99.81462058 36.26171875 98.46875 C34.42135995 97.09441502 34.42135995 97.09441502 31.3125 96.3125 C28.5625 95.3125 28.5625 95.3125 27.3125 92.875 C24.83324044 89.24465565 22.05645801 89.17502555 17.92578125 88.12890625 C14.69412233 87.01251499 13.51901397 85.03764446 11.5625 82.3125 C9.58001285 81.59543018 7.57834651 80.92959587 5.5625 80.3125 C3.86928061 79.01305256 2.19854196 77.68323786 0.5625 76.3125 C-6.48433767 73.96355411 -10.07237549 75.3322555 -15.51171875 79.86328125 Z " fill="#3f78e0" transform="translate(189.4375,16.6875)"/>
<path d="M0 0 C0.33 0 0.66 0 1 0 C2.38008165 6.72789805 3.2429092 13.71686342 0 20 C-0.66 19.67 -1.32 19.34 -2 19 C-1.67 18.34 -1.34 17.68 -1 17 C-0.95397359 14.30457817 -0.95319184 11.63130951 -1 8.9375 C-1.04584426 6.28540969 -1.0470164 3.65348806 -1 1 C-0.67 0.67 -0.34 0.34 0 0 Z " fill="#222232" transform="translate(272,240)"/>
</svg>
